<?xml version="1.0" encoding="UTF-8" standalone="no"?>
<svg
   xmlns:dc="http://purl.org/dc/elements/1.1/"
   xmlns:cc="http://creativecommons.org/ns#"
   xmlns:rdf="http://www.w3.org/1999/02/22-rdf-syntax-ns#"
   xmlns:svg="http://www.w3.org/2000/svg"
   xmlns="http://www.w3.org/2000/svg"
   xmlns:sodipodi="http://sodipodi.sourceforge.net/DTD/sodipodi-0.dtd"
   xmlns:inkscape="http://www.inkscape.org/namespaces/inkscape"
   width="500.51968"
   height="300.70078"
   fill="currentColor"
   class="bi bi-envelope-check-fill"
   viewBox="0 0 500.51971 300.70077"
   version="1.1"
   id="svg957"
   sodipodi:docname="envelope-check-fill.svg"
   inkscape:version="1.0.2 (1.0.2+r75+1)">
  <metadata
     id="metadata963">
    <rdf:RDF>
      <cc:Work
         rdf:about="">
        <dc:format>image/svg+xml</dc:format>
        <dc:type
           rdf:resource="http://purl.org/dc/dcmitype/StillImage" />
        <dc:title></dc:title>
      </cc:Work>
    </rdf:RDF>
  </metadata>
  <defs
     id="defs961" />
  <sodipodi:namedview
     pagecolor="#ffffff"
     bordercolor="#666666"
     borderopacity="1"
     objecttolerance="10"
     gridtolerance="10"
     guidetolerance="10"
     inkscape:pageopacity="0"
     inkscape:pageshadow="2"
     inkscape:window-width="1213"
     inkscape:window-height="969"
     id="namedview959"
     showgrid="false"
     inkscape:zoom="0.64453125"
     inkscape:cx="305.2315"
     inkscape:cy="-159.3593"
     inkscape:window-x="67"
     inkscape:window-y="27"
     inkscape:window-maximized="1"
     inkscape:current-layer="svg957"
     units="px" />
  <path
     fill-rule="evenodd"
     d="M 18.579209,45.217793 A 59.27062,47.347619 0 0 1 76.368063,8.405019 H 431.99178 a 59.27062,47.347619 0 0 1 57.78886,36.812774 L 254.17992,160.24883 Z m -1.481766,27.03549 V 240.43203 L 189.07114,156.20061 Z M 217.46177,170.09714 22.757787,265.43157 a 59.27062,47.347619 0 0 0 53.610276,27.05916 H 261.76656 a 133.15145,106.36643 0 0 1 -7.58664,-35.51071 133.06254,106.2954 0 0 1 47.59431,-81.57995 l -10.87616,-5.32661 -36.71815,17.92108 -36.71815,-17.92108 z M 491.2624,72.253283 V 190.00681 a 133.09218,106.31908 0 0 0 -103.72358,-39.55893 133.06254,106.2954 0 0 0 -58.23339,10.65321 l -10.01673,-4.90048 z m 0,184.726737 a 103.72359,82.858333 0 1 1 -207.44717,0 103.72359,82.858333 0 0 1 207.44717,0 z m -59.06317,-39.74833 a 14.817655,11.836905 0 0 1 5.09727,16.24024 l -39.56314,52.6979 a 22.226483,17.755357 0 0 1 -34.79185,3.40902 L 340.00378,271.279 a 14.836374,11.851858 0 0 1 20.9818,-16.76106 l 16.21051,12.97325 34.67332,-46.1876 a 14.817655,11.836905 0 0 1 20.32982,-4.0719 z"
     id="path955"
     inkscape:export-filename="/home/shintya/Pictures/gambar1.png"
     inkscape:export-xdpi="96"
     inkscape:export-ydpi="96"
     style="stroke-width:26.4874" />
</svg>
