<?xml version="1.0" encoding="UTF-8" standalone="no"?>
<svg
   xmlns:dc="http://purl.org/dc/elements/1.1/"
   xmlns:cc="http://creativecommons.org/ns#"
   xmlns:rdf="http://www.w3.org/1999/02/22-rdf-syntax-ns#"
   xmlns:svg="http://www.w3.org/2000/svg"
   xmlns="http://www.w3.org/2000/svg"
   xmlns:xlink="http://www.w3.org/1999/xlink"
   xmlns:sodipodi="http://sodipodi.sourceforge.net/DTD/sodipodi-0.dtd"
   xmlns:inkscape="http://www.inkscape.org/namespaces/inkscape"
   width="200.56693"
   height="200.56693"
   viewBox="0 0 53.066666 53.066663"
   version="1.1"
   id="svg8"
   inkscape:version="1.0.2 (1.0.2+r75+1)"
   sodipodi:docname="logo.svg">
  <defs
     id="defs2">
    <linearGradient
       inkscape:collect="always"
       id="linearGradient1641">
      <stop
         style="stop-color:#000000;stop-opacity:1;"
         offset="0"
         id="stop1637" />
      <stop
         style="stop-color:#000000;stop-opacity:0;"
         offset="1"
         id="stop1639" />
    </linearGradient>
    <rect
       x="39.812714"
       y="125.75391"
       width="93.361664"
       height="12.491382"
       id="rect1579" />
    <inkscape:path-effect
       effect="bspline"
       id="path-effect1575"
       is_visible="true"
       lpeversion="1"
       weight="33.333333"
       steps="2"
       helper_size="0"
       apply_no_weight="true"
       apply_with_weight="true"
       only_selected="false" />
    <inkscape:path-effect
       effect="bspline"
       id="path-effect1570"
       is_visible="true"
       lpeversion="1"
       weight="33.333333"
       steps="2"
       helper_size="0"
       apply_no_weight="true"
       apply_with_weight="true"
       only_selected="false" />
    <inkscape:path-effect
       effect="bspline"
       id="path-effect1558"
       is_visible="true"
       lpeversion="1"
       weight="33.333333"
       steps="2"
       helper_size="0"
       apply_no_weight="true"
       apply_with_weight="true"
       only_selected="false" />
    <inkscape:path-effect
       effect="bspline"
       id="path-effect1535"
       is_visible="true"
       lpeversion="1"
       weight="33.333333"
       steps="2"
       helper_size="0"
       apply_no_weight="true"
       apply_with_weight="true"
       only_selected="false" />
    <inkscape:path-effect
       effect="bspline"
       id="path-effect1530"
       is_visible="true"
       lpeversion="1"
       weight="33.333333"
       steps="2"
       helper_size="0"
       apply_no_weight="true"
       apply_with_weight="true"
       only_selected="false" />
    <inkscape:path-effect
       effect="bspline"
       id="path-effect1431"
       is_visible="true"
       lpeversion="1"
       weight="33.333333"
       steps="2"
       helper_size="0"
       apply_no_weight="true"
       apply_with_weight="true"
       only_selected="false" />
    <inkscape:path-effect
       effect="bspline"
       id="path-effect1369"
       is_visible="true"
       lpeversion="1"
       weight="33.333333"
       steps="2"
       helper_size="0"
       apply_no_weight="true"
       apply_with_weight="true"
       only_selected="false" />
    <inkscape:path-effect
       effect="bspline"
       id="path-effect1364"
       is_visible="true"
       lpeversion="1"
       weight="33.333333"
       steps="2"
       helper_size="0"
       apply_no_weight="true"
       apply_with_weight="true"
       only_selected="false" />
    <inkscape:path-effect
       effect="bspline"
       id="path-effect1340"
       is_visible="true"
       lpeversion="1"
       weight="33.333333"
       steps="2"
       helper_size="0"
       apply_no_weight="true"
       apply_with_weight="true"
       only_selected="false" />
    <inkscape:path-effect
       effect="bspline"
       id="path-effect1316"
       is_visible="true"
       lpeversion="1"
       weight="33.333333"
       steps="2"
       helper_size="0"
       apply_no_weight="true"
       apply_with_weight="true"
       only_selected="false" />
    <inkscape:path-effect
       effect="bspline"
       id="path-effect1293"
       is_visible="true"
       lpeversion="1"
       weight="33.333333"
       steps="2"
       helper_size="0"
       apply_no_weight="true"
       apply_with_weight="true"
       only_selected="false" />
    <inkscape:path-effect
       effect="bspline"
       id="path-effect1289"
       is_visible="true"
       lpeversion="1"
       weight="33.333333"
       steps="2"
       helper_size="0"
       apply_no_weight="true"
       apply_with_weight="true"
       only_selected="false" />
    <inkscape:path-effect
       effect="bspline"
       id="path-effect1284"
       is_visible="true"
       lpeversion="1"
       weight="33.333333"
       steps="2"
       helper_size="0"
       apply_no_weight="true"
       apply_with_weight="true"
       only_selected="false" />
    <inkscape:path-effect
       effect="bspline"
       id="path-effect1259"
       is_visible="true"
       lpeversion="1"
       weight="33.333333"
       steps="2"
       helper_size="0"
       apply_no_weight="true"
       apply_with_weight="true"
       only_selected="false" />
    <inkscape:path-effect
       effect="bspline"
       id="path-effect1254"
       is_visible="true"
       lpeversion="1"
       weight="33.333333"
       steps="2"
       helper_size="0"
       apply_no_weight="true"
       apply_with_weight="true"
       only_selected="false" />
    <inkscape:path-effect
       effect="bspline"
       id="path-effect1242"
       is_visible="true"
       lpeversion="1"
       weight="33.333333"
       steps="2"
       helper_size="0"
       apply_no_weight="true"
       apply_with_weight="true"
       only_selected="false" />
    <inkscape:path-effect
       effect="bspline"
       id="path-effect1219"
       is_visible="true"
       lpeversion="1"
       weight="33.333333"
       steps="2"
       helper_size="0"
       apply_no_weight="true"
       apply_with_weight="true"
       only_selected="false" />
    <inkscape:path-effect
       effect="bspline"
       id="path-effect1215"
       is_visible="true"
       lpeversion="1"
       weight="33.333333"
       steps="2"
       helper_size="0"
       apply_no_weight="true"
       apply_with_weight="true"
       only_selected="false" />
    <inkscape:path-effect
       effect="bspline"
       id="path-effect1211"
       is_visible="true"
       lpeversion="1"
       weight="33.333333"
       steps="2"
       helper_size="0"
       apply_no_weight="true"
       apply_with_weight="true"
       only_selected="false" />
    <inkscape:path-effect
       effect="bspline"
       id="path-effect1205"
       is_visible="true"
       lpeversion="1"
       weight="33.333333"
       steps="2"
       helper_size="0"
       apply_no_weight="true"
       apply_with_weight="true"
       only_selected="false" />
    <rect
       x="49.340214"
       y="96.043716"
       width="83.648064"
       height="29.365778"
       id="rect1161" />
    <rect
       x="49.340214"
       y="96.043716"
       width="83.648064"
       height="29.365778"
       id="rect1161-9" />
    <rect
       x="49.340214"
       y="96.043716"
       width="83.648064"
       height="29.365778"
       id="rect1174" />
    <rect
       x="39.812714"
       y="125.75391"
       width="106.49979"
       height="12.848098"
       id="rect1579-1" />
    <rect
       x="39.812714"
       y="125.75391"
       width="78.827286"
       height="14.158775"
       id="rect1592" />
    <linearGradient
       inkscape:collect="always"
       xlink:href="#linearGradient1641"
       id="linearGradient1643"
       x1="40.851192"
       y1="131.26518"
       x2="119.16658"
       y2="131.26518"
       gradientUnits="userSpaceOnUse" />
    <rect
       x="39.812714"
       y="125.75391"
       width="106.49979"
       height="12.848098"
       id="rect1579-1-9" />
    <rect
       x="39.812714"
       y="125.75391"
       width="106.49979"
       height="12.848098"
       id="rect1654" />
  </defs>
  <sodipodi:namedview
     id="base"
     pagecolor="#bcbcbc"
     bordercolor="#666666"
     borderopacity="1.0"
     inkscape:pageopacity="0"
     inkscape:pageshadow="2"
     inkscape:zoom="1.0452055"
     inkscape:cx="243.59428"
     inkscape:cy="178.94755"
     inkscape:document-units="mm"
     inkscape:current-layer="layer1"
     inkscape:document-rotation="0"
     showgrid="false"
     inkscape:pagecheckerboard="true"
     showguides="true"
     inkscape:window-width="1213"
     inkscape:window-height="969"
     inkscape:window-x="67"
     inkscape:window-y="27"
     inkscape:window-maximized="1"
     units="px" />
  <metadata
     id="metadata5">
    <rdf:RDF>
      <cc:Work
         rdf:about="">
        <dc:format>image/svg+xml</dc:format>
        <dc:type
           rdf:resource="http://purl.org/dc/dcmitype/StillImage" />
        <dc:title></dc:title>
      </cc:Work>
    </rdf:RDF>
  </metadata>
  <g
     inkscape:label="Layer 1"
     inkscape:groupmode="layer"
     id="layer1">
    <path
       style="fill:#ffcb12;fill-opacity:1;stroke:#000000;stroke-width:1.086;stroke-linecap:butt;stroke-linejoin:miter;stroke-miterlimit:4;stroke-dasharray:none;stroke-opacity:1"
       d="M 8.4150824,22.314774 16.322757,45.982321 40.507992,45.957081 47.783957,22.896131 28.06334,6.4450969 8.1862875,23.162063"
       id="path1201"
       sodipodi:nodetypes="cccccc"
       inkscape:export-xdpi="96"
       inkscape:export-ydpi="96" />
    <path
       sodipodi:type="star"
       style="fill:#ffffff;fill-opacity:1;stroke:none;stroke-width:0.204534;stroke-miterlimit:4;stroke-dasharray:none;stroke-opacity:1"
       id="path1207"
       sodipodi:sides="5"
       sodipodi:cx="66.507828"
       sodipodi:cy="85.470398"
       sodipodi:r1="1.5647005"
       sodipodi:r2="0.58828729"
       sodipodi:arg1="0.88133807"
       sodipodi:arg2="1.6018771"
       inkscape:flatsided="false"
       inkscape:rounded="0"
       inkscape:randomized="0"
       d="m 67.503164,86.677706 -1.013618,-0.619305 -0.822361,0.731697 0.275769,-1.155384 -0.950008,-0.556005 1.184052,-0.09476 0.235224,-1.075327 0.456015,1.096818 1.095385,-0.108583 -0.902219,0.772632 z"
       inkscape:transform-center-x="0.027689881"
       inkscape:transform-center-y="-0.27849576"
       transform="matrix(1.3399191,0,0,1.0483253,-61.214649,-74.200472)"
       inkscape:export-xdpi="96"
       inkscape:export-ydpi="96" />
    <path
       style="fill:#ff0202;fill-opacity:1;stroke:none;stroke-width:0.208366px;stroke-linecap:butt;stroke-linejoin:miter;stroke-opacity:1"
       d="m 27.746494,24.820219 c -0.04804,-0.06188 -0.144312,-0.185861 -0.217545,-0.324388 -0.07323,-0.138526 -0.123334,-0.291603 -0.105235,-0.417396 0.0181,-0.125793 0.104474,-0.224043 0.177141,-0.329788 0.07267,-0.105746 0.131635,-0.219022 0.160208,-0.336805 0.02857,-0.117783 0.02671,-0.240195 0.02007,-0.333824 -0.0066,-0.09363 -0.01808,-0.158505 -0.0368,-0.225889 -0.01871,-0.06738 -0.04474,-0.137301 -0.04124,-0.165048 0.0035,-0.02775 0.03637,-0.0132 0.08827,0.03419 0.0519,0.0474 0.122885,0.127538 0.192944,0.230965 0.07006,0.103428 0.139249,0.230111 0.196633,0.350555 0.05739,0.120444 0.102988,0.234626 0.126827,0.363766 0.02384,0.129139 0.026,0.273266 -2.84e-4,0.433209 -0.02629,0.159942 -0.08099,0.335766 -0.143985,0.464093 -0.06299,0.128326 -0.134311,0.209267 -0.189325,0.263103 -0.05501,0.05384 -0.09379,0.08062 -0.12095,0.08542 -0.02716,0.0048 -0.04285,-0.01263 -0.0508,-0.02146 -0.008,-0.0088 -0.0079,-0.0088 -0.05593,-0.0707 z"
       id="path1257"
       inkscape:path-effect="#path-effect1259"
       inkscape:original-d="m 27.794538,24.882096 c -0.09605,-0.123784 -0.192319,-0.247767 -0.288801,-0.371952 -0.04988,-0.152886 -0.09998,-0.305962 -0.150305,-0.459248 0.0866,-0.09806 0.172978,-0.196309 0.259151,-0.294775 0.05919,-0.113089 0.11816,-0.226365 0.176916,-0.33985 -0.0017,-0.122214 -0.0035,-0.244628 -0.0056,-0.367243 -0.01123,-0.06467 -0.02268,-0.129545 -0.03434,-0.19462 -0.02581,-0.06971 -0.05185,-0.139624 -0.07809,-0.209737 0.0331,0.01474 0.06596,0.0293 0.09862,0.04364 0.0712,0.08034 0.142186,0.160481 0.212956,0.24042 0.06941,0.12689 0.138598,0.253574 0.207579,0.380067 0.04582,0.114394 0.09143,0.228573 0.136818,0.342562 0.0024,0.144335 0.0045,0.288463 0.0065,0.432393 -0.05449,0.176036 -0.109191,0.35186 -0.16411,0.527489 -0.0711,0.08114 -0.142417,0.162081 -0.21395,0.242819 -0.03855,0.02698 -0.07733,0.05376 -0.116316,0.08033 -0.01547,-0.01723 -0.03117,-0.03466 -0.04709,-0.0523 z"
       sodipodi:nodetypes="scccccccccccccccss"
       inkscape:export-xdpi="96"
       inkscape:export-ydpi="96" />
    <path
       style="fill:#ffffff;fill-opacity:1;stroke:#000000;stroke-width:0.208366px;stroke-linecap:butt;stroke-linejoin:miter;stroke-opacity:1"
       d="m 19.30046,34.268175 c 0.0017,-0.186168 0.0052,-0.558708 0.0098,-0.767429 0.0047,-0.208722 0.01052,-0.253551 0.09985,-0.255139 0.08934,-0.0016 0.261869,0.04019 0.531075,0.09948 0.269206,0.05929 0.635078,0.136085 1.005651,0.162643 0.370573,0.02656 0.745867,0.0029 1.111679,-0.06183 0.365811,-0.06477 0.722184,-0.170655 1.055871,-0.279362 0.333687,-0.108708 0.644687,-0.220229 1.026578,-0.31438 0.381891,-0.09415 0.834604,-0.170941 1.178152,-0.191972 0.343548,-0.02103 0.577843,0.01363 0.785991,0.09118 0.208148,0.07755 0.390121,0.197858 0.550757,0.327917 0.160635,0.130058 0.299963,0.269817 0.397342,0.393054 0.09738,0.123237 0.152884,0.229906 0.186006,0.306121 0.03312,0.07621 0.04389,0.121818 0.07301,0.187285 0.02912,0.06547 0.07648,0.150679 0.100092,0.19317 0.02361,0.04249 0.02361,0.04249 0.02666,0.03329 0.003,-0.0092 0.0091,-0.02757 0.03793,-0.121893 0.02881,-0.09432 0.0803,-0.26451 0.180817,-0.421006 0.100514,-0.156496 0.249989,-0.299164 0.424059,-0.442257 0.17407,-0.143094 0.372694,-0.286587 0.612349,-0.378753 0.239656,-0.09217 0.520172,-0.133 0.886049,-0.10521 0.365878,0.02779 0.817019,0.124127 1.257224,0.249733 0.440205,0.125606 0.86944,0.280433 1.224025,0.392407 0.354585,0.111973 0.634485,0.181112 0.933381,0.193198 0.298897,0.01209 0.616809,-0.03279 0.941332,-0.06813 0.324522,-0.03534 0.655602,-0.06116 0.913591,-0.09986 0.25799,-0.03869 0.442917,-0.09023 0.5614,-0.122238 0.118482,-0.03201 0.170536,-0.0445 0.198444,-0.02401 0.02791,0.0205 0.03184,0.07373 0.03303,0.177602 0.0012,0.103877 -3.44e-4,0.258401 -0.0025,0.404644 -0.0022,0.146242 -0.005,0.2842 -0.008,0.397133 -0.003,0.112933 -0.0062,0.200833 -0.01037,0.256067 -0.0042,0.05523 -0.0094,0.07762 -0.03983,0.09131 -0.03042,0.01369 -0.08605,0.01854 -0.27105,0.01996 -0.184995,0.0014 -0.499259,-6.1e-4 -1.927353,0.0064 -1.428094,0.007 -3.969896,0.02301 -6.426244,0.01404 -2.456349,-0.009 -4.827102,-0.04292 -6.070781,-0.05634 -1.24368,-0.01343 -1.360157,-0.0063 -1.434015,-0.0038 -0.07386,0.0026 -0.105072,5.22e-4 -0.12368,-0.01636 -0.01861,-0.01688 -0.02436,-0.0488 -0.02726,-0.06487 -0.0029,-0.01607 -0.0029,-0.01564 -0.0011,-0.201809 z"
       id="path1287"
       inkscape:path-effect="#path-effect1289"
       inkscape:original-d="m 19.298736,34.454343 c 0.0038,-0.372333 0.0071,-0.744874 0.01035,-1.117616 0.0061,-0.04467 0.01196,-0.0895 0.01761,-0.134548 0.172747,0.04198 0.345272,0.08379 0.517583,0.125337 0.366107,0.07702 0.731982,0.153804 1.097652,0.230403 0.375521,-0.02342 0.750812,-0.0471 1.125896,-0.07086 0.356603,-0.105682 0.712975,-0.211572 1.06914,-0.317662 0.311225,-0.111321 0.622223,-0.222849 0.933011,-0.334568 0.452947,-0.07659 0.90566,-0.15338 1.358165,-0.230377 0.234527,0.03486 0.468828,0.06948 0.702918,0.10399 0.182196,0.120515 0.36417,0.240821 0.54593,0.360928 0.139546,0.139961 0.278872,0.279723 0.417984,0.419276 0.05573,0.106879 0.111232,0.21355 0.166524,0.320022 0.011,0.04597 0.02179,0.09157 0.03237,0.137055 0.04759,0.08544 0.09495,0.17065 0.142093,0.255679 2.16e-4,1.91e-4 2.16e-4,1.91e-4 0,0 0.0064,-0.0183 0.01242,-0.03669 0.01832,-0.05534 0.05172,-0.169999 0.103213,-0.340188 0.154494,-0.510569 0.149696,-0.142476 0.299171,-0.285144 0.448433,-0.428011 0.19885,-0.143292 0.397475,-0.286783 0.595889,-0.430491 0.28075,-0.04068 0.561275,-0.08145 0.841589,-0.12251 0.451373,0.09654 0.902513,0.192881 1.353446,0.289013 0.429471,0.155036 0.858705,0.309865 1.287733,0.464493 0.280137,0.06939 0.560045,0.138495 0.839745,0.207427 0.318151,-0.04476 0.636074,-0.08956 0.953789,-0.134636 0.331311,-0.02567 0.662395,-0.05144 0.993266,-0.07746 0.185155,-0.05135 0.370086,-0.102872 0.554804,-0.154611 0.05225,-0.01223 0.104283,-0.02481 0.156103,-0.03747 0.0041,0.05343 0.008,0.106662 0.01179,0.159703 -0.0013,0.154724 -0.0029,0.309248 -0.0046,0.463573 -0.0024,0.138166 -0.0052,0.276124 -0.0084,0.413882 -0.0029,0.08811 -0.0061,0.176009 -0.0095,0.26372 -0.005,0.02281 -0.01021,0.04519 -0.01568,0.06766 -0.05552,0.0061 -0.111242,0.0099 -0.167186,0.01458 -0.314065,-0.0017 -0.628336,-0.0026 -0.942826,-0.0061 -2.541688,0.01622 -5.08349,0.03218 -7.625558,0.04805 -2.370633,-0.03374 -4.741385,-0.06774 -7.112401,-0.101857 -0.116298,0.0078 -0.232807,0.0144 -0.349534,0.02134 -0.03102,-0.0017 -0.06225,-0.0035 -0.09371,-0.0061 -0.0056,-0.03174 -0.0113,-0.06367 -0.01727,-0.09577 z"
       sodipodi:nodetypes="scccccccccccccccccccccccccccccccccccccccs"
       inkscape:export-xdpi="96"
       inkscape:export-ydpi="96" />
    <path
       style="fill:#ffffff;fill-opacity:1;stroke:#000000;stroke-width:0.208366px;stroke-linecap:butt;stroke-linejoin:miter;stroke-opacity:1"
       d="m 20.258162,32.163266 c 0.285187,-0.34234 0.855578,-1.027042 1.157816,-1.384095 0.302238,-0.357052 0.336287,-0.386423 0.377682,-0.384969 0.0414,0.0015 0.08983,0.03358 0.206826,0.06762 0.116995,0.03404 0.302528,0.07011 0.541456,0.08365 0.238928,0.01355 0.531284,0.0046 0.81786,-0.05011 0.286575,-0.05474 0.567439,-0.155262 0.809315,-0.251906 0.241877,-0.09664 0.444777,-0.189403 0.702439,-0.26552 0.257661,-0.07612 0.569987,-0.135599 0.871125,-0.127115 0.301138,0.0085 0.590984,0.08483 0.81679,0.171887 0.225806,0.08706 0.387557,0.184728 0.507735,0.293677 0.120178,0.10895 0.198867,0.229083 0.258111,0.339811 0.05924,0.110728 0.0991,0.212041 0.121377,0.302645 0.02228,0.0906 0.02705,0.170534 0.01164,0.615401 -0.01541,0.444868 -0.051,1.254655 -0.06575,1.756641 -0.01476,0.501985 -0.0087,0.696052 -0.04409,0.71762 -0.03538,0.02157 -0.112315,-0.129421 -0.233961,-0.280436 -0.121646,-0.151015 -0.288072,-0.301977 -0.467827,-0.45154 -0.179755,-0.149562 -0.372819,-0.297676 -0.651839,-0.389026 -0.279019,-0.09135 -0.643973,-0.12577 -1.028718,-0.08095 -0.384744,0.04482 -0.78916,0.168936 -1.206084,0.299658 -0.416924,0.130723 -0.846328,0.268045 -1.272075,0.373878 -0.425747,0.105832 -0.847813,0.18015 -1.20165,0.196669 -0.353838,0.01652 -0.639468,-0.02483 -0.907414,-0.08394 -0.267945,-0.05911 -0.518122,-0.135986 -0.708928,-0.175639 -0.190807,-0.03965 -0.321953,-0.04195 -0.361261,-0.08709 -0.03931,-0.04514 0.01351,-0.133149 0.08053,-0.221467 0.06702,-0.08832 0.148198,-0.176867 0.247857,-0.284113 0.09966,-0.107245 0.217747,-0.233129 0.2768,-0.296081 0.05905,-0.06295 0.05906,-0.06282 0.344242,-0.405162 z"
       id="path1291"
       inkscape:path-effect="#path-effect1316"
       inkscape:original-d="m 19.972975,32.505607 c 0.570602,-0.684491 1.140989,-1.369197 1.711158,-2.054087 0.0343,-0.02915 0.06835,-0.05852 0.102212,-0.08817 0.04868,0.03235 0.09712,0.06447 0.145365,0.09641 0.185747,0.03623 0.371271,0.07234 0.556583,0.108184 0.292584,-0.0087 0.58494,-0.01761 0.877088,-0.02675 0.281087,-0.100315 0.561949,-0.200843 0.842601,-0.301569 0.203126,-0.09256 0.406028,-0.185316 0.608718,-0.278285 0.312559,-0.0593 0.624888,-0.118766 0.937009,-0.178451 0.290075,0.07655 0.579922,0.152896 0.86956,0.229051 0.161976,0.09788 0.323729,0.195548 0.48527,0.293026 0.0789,0.120336 0.157592,0.240467 0.236063,0.360393 0.04007,0.101524 0.07993,0.202837 0.119578,0.303946 0.005,0.08013 0.0098,0.160059 0.01433,0.239787 -0.03536,0.810031 -0.07095,1.619818 -0.106747,2.42947 0.0063,0.194302 0.01232,0.38837 0.01816,0.582266 -0.07672,-0.150803 -0.153656,-0.301789 -0.230812,-0.452992 -0.166229,-0.150778 -0.332658,-0.301737 -0.499317,-0.452922 -0.192862,-0.147924 -0.385925,-0.296039 -0.579218,-0.444361 -0.364752,-0.03417 -0.729704,-0.06861 -1.09488,-0.103262 -0.404216,0.12433 -0.808633,0.248445 -1.213273,0.372359 -0.429204,0.137533 -0.858608,0.274857 -1.288236,0.411973 -0.421893,0.0746 -0.843972,0.148843 -1.26629,0.22297 -0.285425,-0.04112 -0.571053,-0.08249 -0.85691,-0.124053 -0.250053,-0.07668 -0.500224,-0.153579 -0.750789,-0.230716 -0.131019,-0.0017 -0.262158,-0.0044 -0.393564,-0.0069 0.05305,-0.08782 0.105855,-0.175836 0.158461,-0.264057 0.08141,-0.08836 0.162585,-0.176912 0.243568,-0.265689 0.118333,-0.12571 0.236421,-0.251594 0.354311,-0.377703 z"
       sodipodi:nodetypes="cccccccccccccccccccccccccccccc"
       inkscape:export-xdpi="96"
       inkscape:export-ydpi="96" />
    <path
       style="fill:#ffffff;fill-opacity:1;stroke:#000000;stroke-width:0.208366px;stroke-linecap:butt;stroke-linejoin:miter;stroke-opacity:1"
       d="m 28.101974,33.23601 c 0.08277,-0.07442 0.248296,-0.223235 0.555634,-0.314161 0.307337,-0.09092 0.756283,-0.123961 1.212171,-0.06501 0.455888,0.05895 0.918638,0.209789 1.32315,0.344568 0.404512,0.134779 0.750751,0.253485 1.114373,0.333009 0.363621,0.07952 0.744656,0.119931 1.068076,0.121756 0.323421,0.0018 0.589303,-0.03488 0.804849,-0.06396 0.215546,-0.02908 0.380751,-0.05053 0.542576,-0.07162 0.161826,-0.02109 0.320251,-0.04182 0.489221,-0.06633 0.16897,-0.0245 0.348488,-0.05278 0.399834,-0.10783 0.05135,-0.05505 -0.02545,-0.137065 -0.374715,-0.578812 -0.349266,-0.441746 -0.970927,-1.243175 -1.313521,-1.675888 -0.342594,-0.432713 -0.406099,-0.496632 -0.45819,-0.549972 -0.05209,-0.05334 -0.09279,-0.09613 -0.124811,-0.129586 -0.03202,-0.03345 -0.05539,-0.05758 -0.107165,-0.06727 -0.05178,-0.0097 -0.131891,-0.0047 -0.304795,0.02349 -0.172904,0.02818 -0.438516,0.07954 -0.696964,0.09355 -0.258449,0.01401 -0.509771,-0.0094 -0.773588,-0.07539 -0.263816,-0.06599 -0.540127,-0.174653 -0.797374,-0.270726 -0.257247,-0.09607 -0.495416,-0.179543 -0.779614,-0.241754 -0.284197,-0.06221 -0.614384,-0.103098 -0.889518,-0.08443 -0.275134,0.01867 -0.49509,0.09696 -0.683699,0.198865 -0.188609,0.101902 -0.345771,0.227387 -0.443029,0.348384 -0.09726,0.120998 -0.134536,0.23735 -0.167498,0.320727 -0.03296,0.08338 -0.06156,0.133755 -0.0725,0.259254 -0.01093,0.125499 -0.0042,0.325918 -0.01076,0.699249 -0.0065,0.373331 -0.02632,0.919518 -0.04476,1.323941 -0.01844,0.404424 -0.03551,0.66686 -0.04404,0.798129 -0.0085,0.131268 -0.0085,0.131268 -0.0085,0.131268 0,0 -0.107046,0.294182 -0.107046,0.294182 0.203162,-0.284404 0.406299,-0.568774 0.507892,-0.710992 0.101593,-0.142219 0.10158,-0.142217 0.184352,-0.216635 z"
       id="path1367"
       inkscape:path-effect="#path-effect1369"
       inkscape:original-d="m 28.019202,33.310428 c 0.165741,-0.148618 0.331264,-0.297435 0.496572,-0.446452 0.449184,-0.03288 0.898129,-0.06592 1.346874,-0.09911 0.46298,0.151046 0.925729,0.301884 1.388285,0.452523 0.346469,0.11891 0.692706,0.237621 1.038738,0.356123 0.381245,0.0405 0.762268,0.08101 1.143079,0.121216 0.266091,-0.03643 0.531963,-0.07321 0.797628,-0.110122 0.165425,-0.02125 0.330622,-0.04276 0.495622,-0.06436 0.158656,-0.02055 0.317079,-0.04129 0.475297,-0.06219 0.179729,-0.0281 0.359261,-0.05629 0.538542,-0.08483 -0.0766,-0.08188 -0.153419,-0.163875 -0.230455,-0.246129 -0.621474,-0.801255 -1.243135,-1.602684 -1.865028,-2.404342 -0.06331,-0.06376 -0.126825,-0.127668 -0.190562,-0.191806 -0.04046,-0.04253 -0.08114,-0.08534 -0.122038,-0.128318 -0.02315,-0.02392 -0.04652,-0.04805 -0.07011,-0.07241 -0.07993,0.0056 -0.160068,0.01019 -0.240426,0.015 -0.265412,0.0516 -0.531029,0.10294 -0.796867,0.154106 -0.251121,-0.02321 -0.502447,-0.04657 -0.753994,-0.07021 -0.276104,-0.108467 -0.552414,-0.217127 -0.828945,-0.325983 -0.237963,-0.08328 -0.476133,-0.166748 -0.714525,-0.250417 -0.329986,-0.04069 -0.660174,-0.08157 -0.990584,-0.122664 -0.219748,0.0785 -0.439702,0.156802 -0.659876,0.23489 -0.15695,0.125692 -0.314109,0.251181 -0.471489,0.376456 -0.03706,0.11657 -0.07434,0.232922 -0.111844,0.349076 -0.02841,0.05067 -0.05703,0.101037 -0.08587,0.151247 0.0069,0.200639 0.01364,0.401057 0.02014,0.601284 -0.01957,0.54645 -0.03936,1.092637 -0.05935,1.6387 -0.01687,0.26279 -0.03394,0.525227 -0.05124,0.787749 2.15e-4,2e-4 2.15e-4,2e-4 0,0 l -0.107046,0.294182 c 0,0 0.406536,-0.568605 0.609485,-0.853211 z"
       sodipodi:nodetypes="cccccccccccccccccccccccccccccccc"
       inkscape:export-xdpi="96"
       inkscape:export-ydpi="96" />
    <path
       style="fill:none;stroke:#000000;stroke-width:0.261999px;stroke-linecap:butt;stroke-linejoin:miter;stroke-opacity:1"
       d="m 10.698799,21.177323 13.873709,0.04916 v 0"
       id="path1393"
       inkscape:export-xdpi="96"
       inkscape:export-ydpi="96" />
    <path
       style="fill:none;stroke:#000000;stroke-width:0.245708;stroke-linecap:butt;stroke-linejoin:miter;stroke-miterlimit:4;stroke-dasharray:none;stroke-opacity:1"
       d="m 12.346136,20.086136 13.019221,0.110406 v 0"
       id="path1395"
       inkscape:export-xdpi="96"
       inkscape:export-ydpi="96" />
    <path
       style="fill:none;stroke:#000000;stroke-width:0.244369px;stroke-linecap:butt;stroke-linejoin:miter;stroke-opacity:1"
       d="m 9.4905442,22.128989 14.4764898,-0.02007 v 0 l -0.02564,3.5e-5"
       id="path1397"
       inkscape:export-xdpi="96"
       inkscape:export-ydpi="96" />
    <path
       style="fill:none;stroke:#000000;stroke-width:0.257733px;stroke-linecap:butt;stroke-linejoin:miter;stroke-opacity:1"
       d="m 8.1862875,23.162023 13.1632855,-0.02382 2.042763,0.03098"
       id="path1399"
       sodipodi:nodetypes="ccc"
       inkscape:export-xdpi="96"
       inkscape:export-ydpi="96" />
    <path
       style="fill:none;stroke:#000000;stroke-width:0.255677px;stroke-linecap:butt;stroke-linejoin:miter;stroke-opacity:1"
       d="m 8.7977545,24.332756 14.1925055,0.04536 v 0"
       id="path1401"
       inkscape:export-xdpi="96"
       inkscape:export-ydpi="96" />
    <path
       style="fill:none;stroke:#000000;stroke-width:0.261832px;stroke-linecap:butt;stroke-linejoin:miter;stroke-opacity:1"
       d="m 9.1675162,25.692799 14.2960548,-0.0727 v 0"
       id="path1403"
       inkscape:export-xdpi="96"
       inkscape:export-ydpi="96" />
    <path
       style="fill:#000000;fill-opacity:1;stroke:#000000;stroke-width:0.17642px;stroke-linecap:butt;stroke-linejoin:miter;stroke-opacity:1"
       d="m 24.005278,27.119133 c -0.03491,-0.03087 -0.104891,-0.09273 -0.171232,-0.175028 -0.06634,-0.08229 -0.128962,-0.185033 -0.207942,-0.329454 -0.07898,-0.144421 -0.174299,-0.33052 -0.286025,-0.621618 -0.111726,-0.291099 -0.239815,-0.687177 -0.280235,-1.219089 -0.04042,-0.531913 0.0069,-1.199572 0.144372,-1.776305 0.137468,-0.576732 0.365089,-1.062415 0.642448,-1.488965 0.27736,-0.426549 0.604396,-0.793861 0.996696,-1.090295 0.392299,-0.296435 0.849708,-0.521895 1.207025,-0.663753 0.357317,-0.141857 0.614451,-0.200115 0.828472,-0.24018 0.21402,-0.04006 0.384818,-0.06194 0.479899,-0.08791 0.09508,-0.02597 0.11459,-0.05611 0.159267,-0.333788 0.04468,-0.277677 0.114527,-0.802992 0.171087,-1.143307 0.05656,-0.340314 0.09984,-0.495572 0.134416,-0.643096 0.03458,-0.147524 0.06046,-0.287333 0.07669,-0.412525 0.01623,-0.125192 0.02281,-0.235781 0.04171,-0.333824 0.0189,-0.09804 0.05013,-0.183452 0.07061,-0.239406 0.02047,-0.05595 0.03017,-0.08243 0.06131,-0.04841 0.03114,0.03402 0.08356,0.128412 0.127465,0.342243 0.04391,0.213832 0.0794,0.547111 0.130588,0.885016 0.05119,0.337904 0.118054,0.680398 0.167795,0.958311 0.04974,0.277913 0.08236,0.491232 0.103655,0.621843 0.02129,0.130611 0.03124,0.178509 0.05003,0.241549 0.01879,0.06304 0.04638,0.141209 0.08678,0.176985 0.04041,0.03578 0.0935,0.02939 0.276013,0.04868 0.182515,0.01929 0.494378,0.06423 0.809965,0.164188 0.315588,0.09996 0.634863,0.254872 0.97501,0.486058 0.340147,0.231187 0.700861,0.538314 1.061834,0.845661 0,0 0,0 0,0 0.266225,0.358413 0.532576,0.716994 0.711023,1.037938 0.178446,0.320945 0.269115,0.604201 0.341961,0.896792 0.07285,0.292591 0.127869,0.594426 0.14724,0.910193 0.01937,0.315767 0.0031,0.645484 -0.02089,0.928019 -0.02402,0.282534 -0.05582,0.517887 -0.119386,0.726129 -0.06357,0.208241 -0.158888,0.389442 -0.257813,0.584113 -0.09892,0.194671 -0.201448,0.402804 -0.287099,0.576415 -0.08565,0.173612 -0.154425,0.312693 -0.204925,0.405743 -0.0505,0.09305 -0.08272,0.140076 -0.107326,0.182745 -0.02461,0.04267 -0.04158,0.08093 -0.05259,0.08192 -0.01101,9.91e-4 -0.01612,-0.03543 0.03027,-0.343102 0.0464,-0.307676 0.144288,-0.886212 0.168964,-1.437886 0.02468,-0.551673 -0.02394,-1.076077 -0.183166,-1.565554 -0.159223,-0.489477 -0.429075,-0.943742 -0.683944,-1.279476 -0.254868,-0.335734 -0.494711,-0.552719 -0.775003,-0.726913 -0.280292,-0.174193 -0.60111,-0.305523 -0.885199,-0.406216 -0.28409,-0.100692 -0.531386,-0.170691 -0.935734,-0.204342 -0.404348,-0.03365 -0.965675,-0.03088 -1.500006,0.05008 -0.534331,0.08096 -1.041571,0.240149 -1.462713,0.477727 -0.421141,0.237578 -0.756054,0.553511 -0.994173,0.822364 -0.23812,0.268853 -0.379398,0.490566 -0.532826,0.758748 -0.153429,0.268182 -0.318993,0.582799 -0.411577,0.894037 -0.09258,0.311239 -0.1122,0.618978 -0.101838,0.891536 0.01036,0.272557 0.05066,0.509886 0.07483,0.681729 0.02417,0.171842 0.03223,0.278218 0.04638,0.390905 0.01415,0.112687 0.03436,0.231655 0.04961,0.314784 0.01525,0.08313 0.02553,0.130437 0.03834,0.188532 0.01281,0.0581 0.02816,0.126979 0.04276,0.17387 0.01461,0.04689 0.02842,0.07179 0.03525,0.08411 0.0068,0.01232 0.0068,0.01234 -0.02812,-0.01853 z"
       id="path1429"
       inkscape:path-effect="#path-effect1431"
       inkscape:original-d="m 24.040191,27.149999 c -0.06981,-0.06175 -0.1398,-0.123605 -0.209989,-0.18565 -0.06243,-0.102579 -0.12505,-0.205318 -0.187861,-0.308218 -0.09513,-0.185946 -0.190447,-0.372045 -0.285959,-0.558303 -0.127901,-0.395935 -0.25599,-0.792013 -0.384274,-1.188256 0.04751,-0.667527 0.09484,-1.335186 0.141974,-2.003019 0.227822,-0.485543 0.455443,-0.971226 0.682875,-1.457082 0.327288,-0.36715 0.654323,-0.734462 0.981176,-1.10201 0.457648,-0.22527 0.915057,-0.45073 1.37226,-0.676395 0.257363,-0.05806 0.514497,-0.116317 0.771449,-0.174783 0.171065,-0.02167 0.341863,-0.04354 0.512512,-0.06563 0.01969,-0.02996 0.03921,-0.06009 0.05851,-0.09038 0.07005,-0.525175 0.139897,-1.050491 0.209556,-1.575981 0.04348,-0.155103 0.08675,-0.310362 0.129829,-0.465783 0.02606,-0.139653 0.05194,-0.279461 0.07764,-0.419434 0.0068,-0.110435 0.01333,-0.221027 0.01972,-0.331781 0.03144,-0.08526 0.06267,-0.170672 0.09372,-0.256248 0.0099,-0.02633 0.01961,-0.0528 0.02911,-0.07945 0.05262,0.09456 0.105036,0.188954 0.157267,0.283187 0.03568,0.333455 0.07118,0.666733 0.106472,0.999858 0.06707,0.342671 0.133926,0.685167 0.2006,1.027506 0.03283,0.21349 0.06545,0.426809 0.09787,0.639973 0.01011,0.04806 0.0201,0.09595 0.02985,0.143682 0.02778,0.07834 0.05537,0.156508 0.08277,0.234519 0.05331,-0.0063 0.106409,-0.01263 0.159327,-0.01918 0.31207,0.0451 0.623935,0.09002 0.935615,0.134794 0.319475,0.155102 0.63875,0.310011 0.957849,0.464739 0.361224,0.307578 1.08292,0.922042 1.08292,0.922042 v 0 c 0,0 0.532619,0.716962 0.798676,1.075238 0.09093,0.283601 0.181588,0.566861 0.272096,0.850049 0.0552,0.302008 0.110239,0.60384 0.16507,0.905518 -0.01606,0.329894 -0.03229,0.659612 -0.04872,0.989179 -0.03161,0.23552 -0.0634,0.470874 -0.09539,0.70607 -0.09513,0.181375 -0.190457,0.362574 -0.285975,0.543617 -0.102336,0.208289 -0.204855,0.416424 -0.307569,0.624392 -0.06858,0.13926 -0.137361,0.278338 -0.20633,0.417262 -0.03204,0.04721 -0.06427,0.09423 -0.09668,0.141101 -0.0168,0.03842 -0.03376,0.07669 -0.05092,0.114795 -0.005,-0.03623 -0.01001,-0.07266 -0.01533,-0.109233 0.09817,-0.578713 0.196063,-1.157249 0.293788,-1.736276 -0.04841,-0.52438 -0.09704,-1.048783 -0.14589,-1.573556 -0.26972,-0.454205 -0.539573,-0.90847 -0.809725,-1.36308 -0.239659,-0.216812 -0.479501,-0.433798 -0.719545,-0.650972 -0.320577,-0.131119 -0.641394,-0.26245 -0.962458,-0.393994 -0.247112,-0.06981 -0.494409,-0.139806 -0.741909,-0.210003 -0.561158,0.0029 -1.122486,0.0056 -1.684015,0.0083 -0.50707,0.159356 -1.01431,0.318544 -1.521753,0.477575 -0.334732,0.316106 -0.669644,0.632039 -1.004755,0.947815 -0.14109,0.221882 -0.282368,0.443595 -0.423839,0.665148 -0.165378,0.314792 -0.330943,0.629408 -0.496701,0.943867 -0.01942,0.307917 -0.03905,0.615655 -0.05885,0.923236 0.04048,0.237497 0.08079,0.474824 0.120895,0.711995 0.0082,0.106531 0.01632,0.212903 0.02418,0.319122 0.02041,0.119142 0.04063,0.238109 0.06065,0.356922 0.01047,0.04744 0.02074,0.09475 0.03083,0.14188 0.01553,0.06906 0.03089,0.137941 0.04604,0.206674 0.01397,0.02505 0.02778,0.04995 0.04138,0.07462 z"
       sodipodi:nodetypes="sccccccccccccccccccccccccccccccccccccccccccccccccccccccccss"
       inkscape:export-xdpi="96"
       inkscape:export-ydpi="96" />
    <path
       style="fill:none;stroke:#000000;stroke-width:0.245708;stroke-linecap:butt;stroke-linejoin:miter;stroke-miterlimit:4;stroke-dasharray:none;stroke-opacity:1"
       d="m 30.046034,20.175715 14.425361,0.107079 v 0"
       id="path1395-7"
       inkscape:export-xdpi="96"
       inkscape:export-ydpi="96" />
    <path
       style="fill:none;stroke:#000000;stroke-width:0.243098;stroke-linecap:butt;stroke-linejoin:miter;stroke-miterlimit:4;stroke-dasharray:none;stroke-opacity:1"
       d="m 31.862969,21.042723 14.110708,0.107153 v 0"
       id="path1395-7-0"
       inkscape:export-xdpi="96"
       inkscape:export-ydpi="96" />
    <path
       style="fill:none;stroke:#000000;stroke-width:0.245708;stroke-linecap:butt;stroke-linejoin:miter;stroke-miterlimit:4;stroke-dasharray:none;stroke-opacity:1"
       d="m 32.411687,22.107023 14.425361,0.107078 v 0"
       id="path1395-7-6"
       inkscape:export-xdpi="96"
       inkscape:export-ydpi="96" />
    <path
       style="fill:none;stroke:#000000;stroke-width:0.249793;stroke-linecap:butt;stroke-linejoin:miter;stroke-miterlimit:4;stroke-dasharray:none;stroke-opacity:1"
       d="m 32.740373,23.117348 14.925381,0.10696 v 0"
       id="path1395-7-08"
       inkscape:export-xdpi="96"
       inkscape:export-ydpi="96" />
    <path
       style="fill:none;stroke:#000000;stroke-width:0.246774;stroke-linecap:butt;stroke-linejoin:miter;stroke-miterlimit:4;stroke-dasharray:none;stroke-opacity:1"
       d="m 33.072252,24.174242 14.550857,0.107078 v 0"
       id="path1395-7-5"
       inkscape:export-xdpi="96"
       inkscape:export-ydpi="96" />
    <path
       style="fill:none;stroke:#000000;stroke-width:0.245708;stroke-linecap:butt;stroke-linejoin:miter;stroke-miterlimit:4;stroke-dasharray:none;stroke-opacity:1"
       d="m 32.946901,25.23338 14.425361,0.10708 v 0"
       id="path1395-7-3"
       inkscape:export-xdpi="96"
       inkscape:export-ydpi="96" />
    <path
       style="fill:#000000;fill-opacity:1;stroke:#000000;stroke-width:0.0358904;stroke-linecap:butt;stroke-linejoin:miter;stroke-miterlimit:4;stroke-dasharray:none;stroke-opacity:1"
       d="m 27.84904,29.4664 c -0.01374,-0.03611 -0.04125,-0.108458 -0.06076,-0.149394 -0.0195,-0.04093 -0.03112,-0.05043 -0.04491,-0.05583 -0.01378,-0.0054 -0.0298,-0.0066 -0.03866,-0.02522 -0.0089,-0.01861 -0.01039,-0.05471 -0.0097,-0.09857 7.27e-4,-0.04386 0.0037,-0.09543 0.0052,-0.128254 0.0015,-0.03282 0.0015,-0.04677 -0.0099,-0.05552 -0.01136,-0.0088 -0.03439,-0.01224 -0.04709,-0.02661 -0.0127,-0.01437 -0.01504,-0.03998 -0.04048,-0.181335 -0.02544,-0.141355 -0.07401,-0.398657 -0.105283,-0.601423 -0.03127,-0.202767 -0.04523,-0.350964 -0.05232,-0.459859 -0.0071,-0.108896 -0.0073,-0.178499 -0.003,-0.360456 0.0043,-0.181957 0.01311,-0.476253 0.02442,-0.77051 0.01131,-0.294258 0.02512,-0.588457 0.04964,-0.828698 0.02453,-0.240242 0.05978,-0.426486 0.07899,-0.525774 0.01921,-0.09929 0.02238,-0.111626 0.03174,-0.151898 0.0094,-0.04027 0.02492,-0.108453 0.03605,-0.14566 0.01112,-0.03721 0.01755,-0.04312 0.04318,-0.04638 0.02563,-0.0033 0.0702,-0.0038 0.115557,-0.0034 0.04536,3.71e-4 0.09131,0.0016 0.13743,0.0029 0.04324,-0.0013 0.08663,-0.0025 0.11215,0.0228 0.02552,0.02534 0.03345,0.0771 0.04443,0.159876 0.01098,0.08278 0.02502,0.196566 0.04129,0.322197 0.01628,0.125631 0.03478,0.263101 0.04996,0.388188 0.01518,0.125086 0.02703,0.237779 0.0429,0.445033 0.01587,0.207253 0.03577,0.509058 0.04373,0.689815 0.008,0.180756 0.004,0.240447 0.0033,0.294424 -7.49e-4,0.05398 0.0017,0.102105 0.002,0.168885 3.61e-4,0.06678 -0.0013,0.152158 -0.01952,0.355121 -0.01818,0.202962 -0.05283,0.523494 -0.07826,0.712087 -0.02543,0.188594 -0.0416,0.245207 -0.05647,0.309341 -0.01486,0.06413 -0.02841,0.135763 -0.04234,0.171861 -0.01392,0.0361 -0.02841,0.0368 -0.04069,0.03715 -0.01227,3.54e-4 -0.02229,3.54e-4 -0.02398,0.01389 -0.0017,0.01353 0.0051,0.04042 0.0099,0.07348 0.0048,0.03306 0.0076,0.07235 0.0078,0.11831 1.75e-4,0.04596 -0.0023,0.09856 -0.01084,0.123578 -0.0085,0.02501 -0.02355,0.02246 -0.03895,0.02402 -0.0154,0.0016 -0.03095,0.0071 -0.03944,0.02305 -0.0085,0.01593 -0.0096,0.0419 -0.01426,0.0698 -0.0047,0.02791 -0.01288,0.05764 -0.02007,0.07725 -0.0072,0.01961 -0.01326,0.02896 -0.01826,0.03677 -0.005,0.0078 -0.0084,0.01327 -0.01656,0.01487 -0.0081,0.0016 -0.02124,-0.0011 -0.02774,-0.0024 -0.0065,-0.0013 -0.0065,-0.0014 -0.02028,-0.03747 z"
       id="path1209"
       inkscape:path-effect="#path-effect1364"
       inkscape:original-d="m 27.862776,29.502514 c -0.02736,-0.07227 -0.05489,-0.14461 -0.08258,-0.217113 -0.01144,-0.0093 -0.02304,-0.01882 -0.03481,-0.02845 -0.01583,-7.08e-4 -0.03183,-0.0021 -0.048,-0.0036 -0.0013,-0.03602 -0.0029,-0.07212 -0.0046,-0.108369 0.0032,-0.05145 0.0062,-0.103026 0.009,-0.154736 1.64e-4,-0.01394 1.64e-4,-0.02789 0,-0.04197 -0.02279,-0.0029 -0.04572,-0.0071 -0.06883,-0.0104 -0.0022,-0.02527 -0.0045,-0.05088 -0.007,-0.07642 -0.04841,-0.257181 -0.09697,-0.514484 -0.145708,-0.771914 -0.0138,-0.148091 -0.02775,-0.296289 -0.04188,-0.444635 -4.5e-5,-0.06943 -2.64e-4,-0.139033 -6.23e-4,-0.208754 0.009,-0.294187 0.01779,-0.588484 0.02644,-0.882912 0.01397,-0.294084 0.02777,-0.588283 0.04142,-0.882618 0.03542,-0.186122 0.07068,-0.372365 0.105773,-0.558745 0.0033,-0.01219 0.0065,-0.02452 0.0095,-0.037 0.01573,-0.06807 0.03128,-0.136253 0.04668,-0.204574 0.0067,-0.0061 0.01324,-0.01188 0.01961,-0.01804 0.04474,-4.96e-4 0.08931,-7.78e-4 0.133728,-0.0016 0.04629,0.0016 0.138369,0.0038 0.138369,0.0038 0,0 0.08664,-0.0022 0.129719,-0.0038 0.008,0.05193 0.01602,0.103676 0.02378,0.155319 0.0142,0.113918 0.02823,0.227706 0.04211,0.341357 0.01868,0.137608 0.03719,0.275078 0.05553,0.412427 0.01202,0.112828 0.02387,0.225521 0.03555,0.338098 0.02007,0.301935 0.03996,0.603741 0.05969,0.905425 -0.0038,0.05985 -0.0078,0.119537 -0.01185,0.179116 0.0026,0.04836 0.005,0.09649 0.0073,0.144537 -0.0016,0.08552 -0.0032,0.170901 -0.0051,0.256171 -0.0345,0.320669 -0.06913,0.641203 -0.10395,0.961597 -0.01602,0.05683 -0.03222,0.113436 -0.04856,0.169959 -0.01338,0.07173 -0.02694,0.143357 -0.04064,0.214827 -0.01432,7.08e-4 -0.02881,0.0014 -0.04346,0.0021 -0.0099,1.42e-4 -0.01991,1.42e-4 -0.03011,0 0.0069,0.02704 0.0137,0.05392 0.02031,0.08072 0.003,0.03934 0.0058,0.07863 0.0085,0.117774 -0.0023,0.0528 -0.0047,0.105403 -0.0074,0.157915 -0.0147,-0.0021 -0.02954,-0.0056 -0.04456,-0.0076 -0.01561,0.0064 -0.03136,0.0114 -0.0473,0.01691 -8.73e-4,0.02619 -0.0019,0.05216 -0.0033,0.07809 -0.008,0.02994 -0.01626,0.05966 -0.02464,0.08925 -0.006,0.0097 -0.0121,0.01903 -0.0184,0.02838 -0.0035,0.0064 -0.0071,0.01174 -0.0109,0.01741 -0.01276,-0.0021 -0.02569,-0.0056 -0.03876,-0.0079 z"
       sodipodi:nodetypes="ccccccccccccccccccccccccccccccccccccccccccccc"
       inkscape:export-xdpi="96"
       inkscape:export-ydpi="96" />
    <path
       style="fill:#ffcb12;fill-opacity:1;stroke:none;stroke-width:0.123869px;stroke-linecap:butt;stroke-linejoin:miter;stroke-opacity:1"
       d="m 27.818474,25.249707 c -0.0037,0.24944 -0.01124,0.748182 -0.01498,1.011356 -0.0037,0.263173 -0.0037,0.290663 0.0084,0.302305 0.0121,0.01164 0.03602,0.0075 0.05953,0.0068 0.02351,-7.53e-4 0.0464,0.0018 0.061,-0.007 0.0146,-0.0088 0.02104,-0.02918 0.02494,-0.267684 0.0039,-0.238504 0.0053,-0.695264 0.0063,-0.947433 9.83e-4,-0.252168 0.0016,-0.299807 0.0019,-0.327326 3.01e-4,-0.02752 3.01e-4,-0.03497 -0.0017,-0.03927 -0.002,-0.0043 -0.0059,-0.0054 -0.02478,-0.0063 -0.01886,-9.32e-4 -0.05232,-0.0016 -0.07444,-0.0022 -0.02212,-5.32e-4 -0.03285,-8.99e-4 -0.03809,0.0036 -0.0052,0.0045 -0.0049,0.01384 -0.0047,0.01843 1.81e-4,0.0046 4.31e-4,0.0053 -0.0033,0.254712 z"
       id="path1213"
       inkscape:path-effect="#path-effect1530"
       inkscape:original-d="m 27.82222,25.000268 c -0.0074,0.49888 -0.01486,0.997623 -0.02247,1.496248 1.19e-4,0.02772 1.19e-4,0.05521 0,0.08264 0.02425,-0.0038 0.04812,-0.0082 0.07201,-0.01234 0.02307,0.0031 0.046,0.0053 0.06882,0.0077 0.0065,-0.02017 0.01298,-0.04051 0.01927,-0.06092 0.0015,-0.456646 0.0029,-0.913406 0.0041,-1.370301 7.77e-4,-0.04744 0.0013,-0.09508 0.0018,-0.142818 1.19e-4,-0.0073 1.19e-4,-0.01475 0,-0.0223 -0.0039,-0.0011 -0.008,-0.0017 -0.01219,-0.0033 -0.03341,-5.33e-4 -0.06688,-0.0011 -0.1005,-0.0021 -0.01061,-2.15e-4 -0.02135,-5.33e-4 -0.03219,-0.0011 4.95e-4,0.0094 8.74e-4,0.01872 0.0011,0.02791 z"
       sodipodi:nodetypes="cccccccccccccc"
       inkscape:export-xdpi="96"
       inkscape:export-ydpi="96" />
    <path
       style="fill:none;fill-opacity:1;stroke:#ffcb12;stroke-width:0.064577;stroke-linecap:butt;stroke-linejoin:miter;stroke-miterlimit:4;stroke-dasharray:none;stroke-opacity:1"
       d="m 27.22131,27.278239 c 0.440489,0.0024 0.880653,0.0047 1.3205,0.0071"
       id="path1533"
       inkscape:path-effect="#path-effect1535"
       inkscape:original-d="m 27.22131,27.278239 c 0.44049,0.0021 0.880656,0.0042 1.3205,0.0071"
       inkscape:export-xdpi="96"
       inkscape:export-ydpi="96" />
    <path
       style="fill:none;fill-opacity:1;stroke:#ffcb12;stroke-width:0.064577;stroke-linecap:butt;stroke-linejoin:miter;stroke-miterlimit:4;stroke-dasharray:none;stroke-opacity:1"
       d="m 27.197489,28.978412 c 0.44049,0.0024 0.880654,0.0047 1.3205,0.0071"
       id="path1533-9"
       inkscape:path-effect="#path-effect1558"
       inkscape:original-d="m 27.197489,28.978412 c 0.440491,0.0021 0.880657,0.0042 1.3205,0.0071"
       inkscape:export-xdpi="96"
       inkscape:export-ydpi="96" />
    <path
       style="fill:none;fill-opacity:1;stroke:#ffcb12;stroke-width:0.0333587;stroke-linecap:butt;stroke-linejoin:miter;stroke-miterlimit:4;stroke-dasharray:none;stroke-opacity:1"
       d="m 27.872937,29.19096 c 0.002,0.227899 0.004,0.455633 0.006,0.683198"
       id="path1533-4"
       inkscape:path-effect="#path-effect1570"
       inkscape:original-d="m 27.872937,29.19096 c 0.0021,0.227898 0.004,0.455633 0.006,0.683198"
       inkscape:export-xdpi="96"
       inkscape:export-ydpi="96" />
    <path
       style="fill:none;stroke:#000000;stroke-width:1.40631;stroke-linecap:butt;stroke-linejoin:miter;stroke-miterlimit:4;stroke-dasharray:none;stroke-opacity:1"
       d="m 12.99367,36.088852 c 10.3075,-0.02955 20.614777,-0.05909 25.768304,-0.07387 5.153527,-0.01477 5.153527,-0.01477 5.153527,-0.01477"
       id="path1573"
       inkscape:path-effect="#path-effect1575"
       inkscape:original-d="m 12.99367,36.088852 c 10.3075,-0.02941 20.614777,-0.05898 30.921831,-0.08864 2.12e-4,1.99e-4 0,0 0,0"
       sodipodi:nodetypes="ccc"
       inkscape:export-xdpi="96"
       inkscape:export-ydpi="96" />
    <text
       xml:space="preserve"
       id="text1577"
       style="font-style:normal;font-weight:normal;font-size:10.5833px;line-height:1.25;font-family:sans-serif;white-space:pre;shape-inside:url(#rect1579);fill:#000000;fill-opacity:1;stroke:none;stroke-width:0.788773;stroke-miterlimit:4;stroke-dasharray:none;"
       transform="matrix(0.19049356,0,0,0.21564305,12.765082,10.337615)"
       inkscape:export-xdpi="96"
       inkscape:export-ydpi="96"><tspan
         x="39.8125"
         y="135.11765"><tspan
           style="font-style:normal;font-variant:normal;font-weight:normal;font-stretch:normal;font-family:serif;-inkscape-font-specification:serif;stroke:#000000;stroke-width:0.788773;stroke-miterlimit:4;stroke-dasharray:none;stroke-opacity:1">SMP NEGERI 2</tspan></tspan></text>
    <text
       xml:space="preserve"
       id="text1577-5"
       style="font-style:normal;font-weight:normal;font-size:10.5833px;line-height:1.25;font-family:sans-serif;white-space:pre;shape-inside:url(#rect1579-1);fill:#000000;fill-opacity:1;stroke:#000000;stroke-width:0.788773;stroke-miterlimit:4;stroke-dasharray:none;stroke-opacity:1;"
       transform="matrix(0.19049356,0,0,0.21564305,12.482339,12.979093)"
       inkscape:export-xdpi="96"
       inkscape:export-ydpi="96"><tspan
         x="39.8125"
         y="135.11765"><tspan
           style="font-style:normal;font-variant:normal;font-weight:normal;font-stretch:normal;font-family:serif;-inkscape-font-specification:serif;stroke:#000000;stroke-width:0.788773;stroke-miterlimit:4;stroke-dasharray:none;stroke-opacity:1">KARANGANYAR</tspan></tspan></text>
    <text
       xml:space="preserve"
       id="text1577-5-4"
       style="font-style:normal;font-weight:normal;font-size:10.5833px;line-height:1.25;font-family:sans-serif;white-space:pre;shape-inside:url(#rect1579-1-9);fill:#000000;fill-opacity:1;stroke:#000000;stroke-width:0.788773;stroke-miterlimit:4;stroke-dasharray:none;stroke-opacity:1;"
       transform="matrix(0.19049356,0,0,0.21564305,16.843128,15.767373)"
       inkscape:transform-center-x="1.2229841"
       inkscape:transform-center-y="-13.217934"
       inkscape:export-xdpi="96"
       inkscape:export-ydpi="96"><tspan
         x="39.8125"
         y="135.11765"><tspan
           style="font-style:normal;font-variant:normal;font-weight:normal;font-stretch:normal;font-family:serif;-inkscape-font-specification:serif;stroke:#000000;stroke-width:0.788773;stroke-miterlimit:4;stroke-dasharray:none;stroke-opacity:1">NGAWI</tspan></tspan></text>
  </g>
</svg>
