<?xml version="1.0" encoding="UTF-8" standalone="no"?>
<svg
   xmlns:dc="http://purl.org/dc/elements/1.1/"
   xmlns:cc="http://creativecommons.org/ns#"
   xmlns:rdf="http://www.w3.org/1999/02/22-rdf-syntax-ns#"
   xmlns:svg="http://www.w3.org/2000/svg"
   xmlns="http://www.w3.org/2000/svg"
   xmlns:sodipodi="http://sodipodi.sourceforge.net/DTD/sodipodi-0.dtd"
   xmlns:inkscape="http://www.inkscape.org/namespaces/inkscape"
   width="50mm"
   height="50mm"
   viewBox="0 0 50 50"
   version="1.1"
   id="svg8"
   inkscape:version="1.0.2 (1.0.2+r75+1)"
   sodipodi:docname="plus.svg">
  <defs
     id="defs2">
    <inkscape:path-effect
       effect="bspline"
       id="path-effect1298"
       is_visible="true"
       lpeversion="1"
       weight="33.333333"
       steps="2"
       helper_size="0"
       apply_no_weight="true"
       apply_with_weight="true"
       only_selected="false" />
  </defs>
  <sodipodi:namedview
     id="base"
     pagecolor="#d8d8d8"
     bordercolor="#666666"
     borderopacity="1.0"
     inkscape:pageopacity="0"
     inkscape:pageshadow="2"
     inkscape:zoom="0.76471815"
     inkscape:cx="257.3061"
     inkscape:cy="394.49584"
     inkscape:document-units="mm"
     inkscape:current-layer="layer1"
     inkscape:document-rotation="0"
     showgrid="false"
     inkscape:pagecheckerboard="true"
     inkscape:window-width="1213"
     inkscape:window-height="969"
     inkscape:window-x="67"
     inkscape:window-y="27"
     inkscape:window-maximized="1" />
  <metadata
     id="metadata5">
    <rdf:RDF>
      <cc:Work
         rdf:about="">
        <dc:format>image/svg+xml</dc:format>
        <dc:type
           rdf:resource="http://purl.org/dc/dcmitype/StillImage" />
        <dc:title />
      </cc:Work>
    </rdf:RDF>
  </metadata>
  <g
     inkscape:label="Layer 1"
     inkscape:groupmode="layer"
     id="layer1">
    <path
       style="fill:#000000;fill-opacity:1;stroke:#000000;stroke-width:0.457038px;stroke-linecap:butt;stroke-linejoin:miter;stroke-opacity:1"
       d="m 19.472879,31.536753 c -0.008,0.73582 -0.02413,2.207037 -0.0119,4.386784 0.01223,2.179747 0.05277,5.067906 0.09153,6.942585 0.03876,1.874679 0.07572,2.735775 0.426353,3.646293 0.350628,0.910518 1.01455,1.870329 1.77884,2.488902 0.76429,0.618573 1.628689,0.896213 2.593504,0.957409 0.964816,0.06119 2.030141,-0.09381 2.902483,-0.391925 0.872342,-0.298117 1.551928,-0.739289 2.10644,-1.337425 0.554513,-0.598136 0.984142,-1.353416 1.24001,-2.599018 0.255868,-1.245603 0.337915,-2.981749 0.374838,-4.965869 0.03692,-1.98412 0.0287,-4.216109 0.01572,-5.819619 -0.01298,-1.603511 -0.03072,-2.578448 -0.02767,-3.161432 0.0031,-0.582985 0.02695,-0.77393 0.206906,-0.861036 0.179951,-0.08711 0.515398,-0.07008 2.371303,-0.05726 1.855904,0.01282 5.232151,0.02146 7.408683,0.02773 2.176533,0.0063 3.153239,0.01017 3.924971,-0.106525 0.771732,-0.1167 1.338662,-0.353872 1.858612,-0.664037 0.519949,-0.310165 0.993052,-0.693326 1.414365,-1.143218 0.421312,-0.449893 0.79093,-0.966613 1.030887,-1.71514 0.239958,-0.748526 0.350266,-1.729155 0.199111,-2.746438 -0.151154,-1.017283 -0.564021,-2.07136 -1.025475,-2.885334 -0.461455,-0.813974 -0.971692,-1.387759 -1.762337,-1.738212 -0.790645,-0.350454 -1.861782,-0.477148 -2.946813,-0.543088 -1.085031,-0.06594 -2.183881,-0.07106 -3.620731,-0.07192 -1.43685,-8.52e-4 -3.211618,0.0026 -4.574473,0.0016 -1.362855,-9.7e-4 -2.313736,-0.0063 -2.981862,-0.01307 -0.668125,-0.0067 -1.053483,-0.01483 -1.287876,-0.01889 -0.234393,-0.0041 -0.317801,-0.0041 -0.334577,-0.308596 -0.01678,-0.304541 0.03362,-0.913974 0.04718,-3.475537 0.01356,-2.561562 -0.0098,-7.0750865 -0.17964,-9.6334429 C 30.541377,3.1726857 30.224666,2.5695001 29.720761,1.9854333 29.216855,1.4013666 28.52556,0.83657113 27.820896,0.47721971 27.116232,0.11786828 26.398184,-0.03573044 25.540301,-0.07376935 c -0.857883,-0.0380389 -1.855445,0.03963572 -2.705976,0.34772891 -0.850532,0.30809319 -1.553634,0.84663224 -2.071371,1.48352024 -0.517738,0.636888 -0.849904,1.3718403 -1.055465,2.1915759 -0.20556,0.8197357 -0.284546,1.7239899 -0.320542,3.3850669 -0.036,1.661077 -0.02904,4.0788204 -0.03021,6.0001834 -0.0012,1.921364 -0.01047,3.346253 -0.01713,4.247712 -0.0067,0.901459 -0.01069,1.279453 -0.233173,1.455156 -0.222478,0.175703 -0.663917,0.149494 -3.017842,0.152014 -2.353926,0.0025 -6.6201348,0.0338 -8.9542242,0.0856 -2.3340894,0.0518 -2.7358965,0.124184 -3.0932643,0.281944 -0.3573679,0.157761 -0.6699996,0.400898 -1.1091436,0.790808 -0.439144,0.389911 -1.0047347,0.926551 -1.4170262,1.788026 -0.4122915,0.861474 -0.67115486,2.047398 -0.68425641,3.031348 -0.0131015,0.983949 0.21933361,1.765642 0.53366001,2.433273 0.3143263,0.667631 0.7102984,1.221154 1.2812461,1.722918 0.5709476,0.501765 1.3166453,0.951903 2.173316,1.215422 0.8566706,0.26352 1.8243033,0.340705 2.8894933,0.364801 1.0651901,0.02409 2.2279304,-0.0048 3.4282713,-0.0125 1.200341,-0.0077 2.438183,0.006 3.461223,0.0042 1.023039,-0.0017 1.831223,-0.01875 2.447519,-0.0297 0.616295,-0.01095 1.040671,-0.01583 1.322525,-0.02635 0.281855,-0.01052 0.42117,-0.02661 0.583043,-0.03367 0.161873,-0.0071 0.346197,-0.0051 0.438114,-0.0042 0.09192,9.64e-4 0.09183,-2.59e-4 0.08379,0.73556 z"
       id="path1296"
       inkscape:path-effect="#path-effect1298"
       inkscape:original-d="m 19.480925,30.800934 c -0.01559,1.471644 -0.03169,2.942861 -0.04826,4.413655 0.04104,2.888688 0.08158,5.776847 0.121617,8.66464 0.0375,0.86155 0.07444,1.722647 0.110899,2.583332 0.664441,0.960281 1.328363,1.920092 1.991805,2.879493 0.864929,0.278076 1.729329,0.555712 2.593249,0.832939 1.065862,-0.154558 2.131184,-0.309584 3.196031,-0.465021 0.680107,-0.440761 1.359694,-0.881932 2.038798,-1.323542 0.430141,-0.75487 0.85977,-1.51015 1.288912,-2.265885 0.08255,-1.735765 0.1646,-3.471911 0.246146,-5.208511 -0.0076,-2.231667 -0.01591,-4.463656 -0.02467,-6.696144 -0.01718,-0.974541 -0.035,-1.949477 -0.05323,-2.924851 0.02438,-0.19052 0.04831,-0.381462 0.0717,-0.5728 0.335943,0.01742 0.671384,0.03456 1.006335,0.05109 3.376878,0.01027 6.753128,0.01758 10.128953,0.02591 0.977245,0.0029 1.953949,0.0073 2.930177,0.01171 0.567455,-0.236772 1.134387,-0.47394 1.700824,-0.711531 0.473636,-0.38278 0.94673,-0.765953 1.419379,-1.149539 0.370099,-0.516312 0.739736,-1.033019 1.108849,-1.550152 0.110836,-0.980236 0.221114,-1.960868 0.330932,-2.941939 C 49.226989,23.400124 48.814115,22.34605 48.400764,21.291535 47.891,20.71815 47.380759,20.144368 46.870025,19.570149 c -1.070668,-0.126213 -2.141798,-0.252966 -3.213436,-0.380086 -1.098385,-0.0043 -2.197231,-0.01027 -3.296586,-0.01537 -1.774343,0.0043 -3.549112,0.0073 -5.324408,0.01027 -0.950421,-0.0043 -1.901299,-0.01027 -2.852694,-0.0161 -0.38487,-0.0073 -0.770219,-0.01582 -1.156067,-0.0243 -0.08293,4.24e-4 -0.166338,4.24e-4 -0.250258,0 0.05088,-0.60904 0.101293,-1.218471 0.151194,-1.828343 -0.02283,-4.5133 -0.04613,-9.0268241 -0.06995,-13.5408585 C 30.541586,3.172576 30.224879,2.5693885 29.90767,1.9657703 29.216848,1.4013747 28.525551,0.83658203 27.833748,0.27135318 27.116169,0.11816375 26.398119,-0.03542531 25.679568,-0.18945074 24.682454,-0.11135162 23.684892,-0.03367415 22.68681,0.04357868 21.98418,0.58255784 21.281079,1.1210977 20.577469,1.6592233 20.245787,2.3946259 19.913623,3.1295792 19.58095,3.8641252 c -0.07849,0.9047126 -0.157475,1.8089669 -0.236961,2.7128157 0.0074,2.4182574 0.01447,4.8360001 0.02088,7.2533651 -0.0088,1.425367 -0.01812,2.850256 -0.02789,4.274748 -0.0035,0.378429 -0.0076,0.756422 -0.01209,1.134003 -0.440955,-0.02577 -0.882394,-0.05198 -1.324333,-0.07863 -4.265884,0.03177 -8.5320939,0.06296 -12.7988823,0.09385 -0.4013105,0.07277 -0.8031013,0.145246 -1.2053962,0.217151 -0.3121507,0.243566 -0.6247801,0.486706 -0.9379104,0.729423 -0.5651135,0.53706 -1.1306959,1.073709 -1.6967872,1.609935 -0.2583774,1.186377 -0.51723957,2.372301 -0.7766027,3.557829 0.23294069,0.782148 0.4653725,1.563842 0.6973195,2.345126 0.396497,0.553986 0.7924773,1.107503 1.1879773,1.660654 0.746211,0.450556 1.4919037,0.900702 2.2371098,1.350423 0.9681587,0.0776 1.9357849,0.154866 2.9029307,0.231559 1.1632803,-0.02855 2.3260231,-0.05739 3.4882925,-0.08682 1.238389,0.01464 2.476236,0.02782 3.713616,0.04084 0.808715,-0.01655 1.6169,-0.03354 2.424611,-0.05109 0.424876,-0.0043 0.849239,-0.01027 1.273121,-0.01464 0.139856,-0.01596 0.279204,-0.03177 0.418063,-0.04831 0.184821,0.0029 0.369151,0.0043 0.552988,0.0058 z" />
  </g>
</svg>
